{"title":"The Losers DVDSCR XViD IMAGiNE","uid":5534987,"size":1634561843,"categoryP":"video","categoryS":"movies","magnet":"?xt=urn:btih:681cd3f41bac5b6b39b4ce4de034a7809d7d61dd&amp;dn=The+Losers+DVDSCR+XViD+IMAGiNE&amp;tr=udp%3A%2F%2Ftracker.openbittorrent.com%3A80&amp;tr=udp%3A%2F%2Fopen.demonii.com%3A1337&amp;tr=udp%3A%2F%2Ftracker.coppersurfer.tk%3A6969&amp;tr=udp%3A%2F%2Fexodus.desync.com%3A6969","seeders":1,"leechers":0,"uploader":"extremezone","files":-1,"time":1273044154,"description":"The Losers DVDSCR XViD IMAGiNE\n\nRipper ...........: IMAGiNE\nIMDB Rating.......:6.9/10                           \nVideo Codec.......: XVID\nRelease Date......:04/05/10\nAudio Codec.......:AC-3\nTheatre Date......:23/04/10\nAudio Bitrate.....:256\nRuntime.......:1h 32mn\nSubtitles.........:ENG when needed\nLanguage..........:ENGLISH\nResolution...... 720 x 304\nIMDb URL..........:http://www.imdb.com/title/tt0480255/\n\n\nDETAILS:\n\nVideo\nFormat                           : MPEG-4 Visual\nFormat profile                   : Streaming Video[@]L1\nFormat settings, BVOP            : Yes\nFormat settings, QPel            : No\nFormat settings, GMC             : No warppoints\nFormat settings, Matrix          : Default\nMuxing mode                      : Packed bitstream\nCodec ID                         : XVID\nCodec ID/Hint                    : XviD\nDuration                         : 1h 36mn\nBit rate                         : 1 958 Kbps\nWidth                            : 720 pixels\nHeight                           : 304 pixels\nDisplay aspect ratio             : 2.35\nFrame rate                       : 23.976 fps\nResolution                       : 24 bits\nColorimetry                      : 4:2:0\nScan type                        : Progressive\nBits/(Pixel*Frame)               : 0.373\nStream size                      : 1.33 GiB (88%)\nWriting library                  : XviD 50\n\nAudio\nFormat                           : AC-3\nFormat/Info                      : Audio Coding 3\nCodec ID                         : 2000\nDuration                         : 1h 36mn\nBit rate mode                    : Constant\nBit rate                         : 256 Kbps\nChannel(s)                       : 2 channels\nChannel positions                : L R\nSampling rate                    : 48.0 KHz\nStream size                      : 178 MiB (12%)\nAlignment                        : Aligned on interleaves\nInterleave, duration             : 42 ms (1.00 video frame)\nInterleave, preload duration     : 512 ms\n\n\n\n\nNOTES:\n\nIMAGiNE bringing you another release.....The Losers DVDSCR\nWell wouldn't you know it, as soon as we do a TS of the losers a DVDSCR was dumped\nin our lap by our good friend MrFreestyle... Thanx bro\nThis turned out to be a very nice source so not much had been done other than a few tweaks\nhere and there. Audio is nice crisp studio audio.\nScanned through it and did not see any property of or anything like that, but i could have missed it.\n\nScreenCaps:\n &lt;a href=&quot;\nhttp://www.postimg.com/image/15000/14134.jpg&quot; rel=&quot;nofollow&quot; target=&quot;_NEW&quot;&gt;\nhttp://www.postimg.com/image/15000/14134.jpg&lt;/a&gt;\n\nThe Losers DVDSCR XViD IMAGiNE Torrent Free Download\n &lt;a href=&quot;\nhttp://thepiratebay.se/user/extremezone/0/7&quot; rel=&quot;nofollow&quot; target=&quot;_NEW&quot;&gt;\nhttp://thepiratebay.se/user/extremezone/0/7&lt;/a&gt;","torrent":{"xt":"urn:btih:681cd3f41bac5b6b39b4ce4de034a7809d7d61dd","amp;dn":"The+Losers+DVDSCR+XViD+IMAGiNE","amp;tr":["udp%3A%2F%2Ftracker.openbittorrent.com%3A80","udp%3A%2F%2Fopen.demonii.com%3A1337","udp%3A%2F%2Ftracker.coppersurfer.tk%3A6969","udp%3A%2F%2Fexodus.desync.com%3A6969"],"infoHash":"681cd3f41bac5b6b39b4ce4de034a7809d7d61dd","infoHashBuffer":{"type":"Buffer","data":[104,28,211,244,27,172,91,107,57,180,206,77,224,52,167,128,157,125,97,221]},"announce":[],"urlList":[]}}